<svg xmlns="http://www.w3.org/2000/svg" xmlns:xlink="http://www.w3.org/1999/xlink" width="800" zoomAndPan="magnify" viewBox="0 0 600 599.999999" height="800" preserveAspectRatio="xMidYMid meet" version="1.0"><defs><clipPath id="id1"><path d="M 13.640625 35 L 560.390625 35 L 560.390625 581.710938 L 13.640625 581.710938 Z M 13.640625 35 " clip-rule="nonzero"/></clipPath><clipPath id="id2"><path d="M 177 97 L 560.390625 97 L 560.390625 581.710938 L 177 581.710938 Z M 177 97 " clip-rule="nonzero"/></clipPath><clipPath id="id3"><path d="M 79 390 L 495 390 L 495 581.710938 L 79 581.710938 Z M 79 390 " clip-rule="nonzero"/></clipPath></defs><g clip-path="url(#id1)"><path fill="#aad8f4" d="M 560.519531 308.441406 C 560.519531 376.382812 535.699219 438.582031 494.675781 486.398438 C 481.453125 501.808594 466.515625 515.738281 450.226562 527.847656 C 404.703125 561.777344 348.269531 581.835938 287.144531 581.835938 C 248.070312 581.835938 210.949219 573.652344 177.34375 558.882812 C 158.3125 550.546875 140.4375 540.109375 123.976562 527.847656 C 107.707031 515.695312 92.8125 501.808594 79.589844 486.417969 C 38.566406 438.601562 13.726562 376.40625 13.726562 308.441406 C 13.726562 157.449219 136.148438 35.046875 287.144531 35.046875 C 390.75 35.046875 480.894531 92.699219 527.277344 177.679688 C 548.472656 216.515625 560.519531 261.074219 560.519531 308.441406 Z M 560.519531 308.441406 " fill-opacity="1" fill-rule="nonzero"/></g><g clip-path="url(#id2)"><path fill="#5ec1ed" d="M 560.519531 308.441406 C 560.519531 376.382812 535.699219 438.582031 494.675781 486.398438 C 481.453125 501.808594 466.515625 515.738281 450.226562 527.847656 C 404.703125 561.777344 348.269531 581.835938 287.144531 581.835938 C 248.070312 581.835938 210.949219 573.652344 177.34375 558.882812 L 299.960938 143.171875 L 286.757812 110.082031 L 359.820312 97.15625 L 527.277344 177.679688 C 548.472656 216.515625 560.519531 261.074219 560.519531 308.441406 Z M 560.519531 308.441406 " fill-opacity="1" fill-rule="nonzero"/></g><path fill="#fbcb98" d="M 195.175781 220.09375 C 192.453125 217.117188 188.273438 215.703125 185.917969 219.796875 C 182.53125 225.667969 182.875 233.554688 183.367188 240.050781 C 183.773438 245.300781 184.417969 250.574219 185.789062 255.695312 C 186.96875 260.109375 188.597656 266.199219 192.539062 268.941406 C 193.441406 269.5625 194.660156 270.183594 195.796875 270.417969 C 196.417969 270.546875 200.191406 270.613281 198.90625 268.984375 " fill-opacity="1" fill-rule="nonzero"/><path fill="#fbcb98" d="M 378.769531 220.09375 C 381.492188 217.117188 385.671875 215.703125 388.027344 219.796875 C 391.414062 225.667969 391.070312 233.554688 390.578125 240.050781 C 390.171875 245.300781 389.527344 250.574219 388.15625 255.695312 C 386.976562 260.109375 385.347656 266.199219 381.40625 268.941406 C 380.503906 269.5625 379.28125 270.183594 378.148438 270.417969 C 377.527344 270.546875 373.753906 270.613281 375.039062 268.984375 " fill-opacity="1" fill-rule="nonzero"/><path fill="#fbcb98" d="M 494.675781 486.398438 C 481.453125 501.808594 466.535156 515.738281 450.226562 527.847656 L 123.976562 527.847656 C 107.6875 515.695312 92.792969 501.808594 79.589844 486.417969 C 91.976562 454.847656 118.230469 429.664062 152.097656 419.335938 L 208.464844 397.6875 C 230.238281 390.527344 229.253906 378.484375 229.253906 355.550781 L 229.253906 306.769531 L 344.96875 306.769531 L 344.96875 355.507812 C 344.96875 378.460938 346.125 392.09375 367.945312 399.230469 L 422.234375 419.269531 C 456.097656 429.644531 482.332031 454.828125 494.675781 486.398438 Z M 494.675781 486.398438 " fill-opacity="1" fill-rule="nonzero"/><g clip-path="url(#id3)"><path fill="#5d281b" d="M 494.675781 486.398438 C 444.546875 544.824219 370.175781 581.835938 287.144531 581.835938 C 204.113281 581.835938 129.742188 544.824219 79.609375 486.417969 C 92 454.847656 118.253906 429.664062 152.117188 419.335938 L 208.484375 397.6875 C 214.828125 395.585938 219.246094 393.078125 222.308594 390.015625 C 222.523438 390.230469 222.757812 390.421875 222.972656 390.636719 C 259.089844 424.4375 314.535156 426.859375 353.15625 395.953125 C 354.398438 394.945312 355.515625 394.152344 356.457031 393.574219 C 359.4375 395.78125 363.1875 397.667969 367.945312 399.230469 L 422.234375 419.269531 C 456.097656 429.644531 482.332031 454.828125 494.675781 486.398438 Z M 494.675781 486.398438 " fill-opacity="1" fill-rule="nonzero"/></g><path fill="#fbcb98" d="M 379.242188 210.152344 C 379.003906 144.824219 338.453125 110.082031 286.757812 110.082031 C 286.738281 110.082031 286.777344 110.082031 286.757812 110.082031 C 286.738281 110.082031 282.855469 105.816406 282.8125 105.816406 C 231.117188 105.816406 195.410156 144.824219 195.195312 210.171875 C 195.089844 239.964844 196.117188 259.574219 199.140625 281.199219 C 208.550781 348.414062 270.425781 367.253906 287.121094 367.253906 C 307.589844 367.253906 365.886719 348.414062 375.296875 281.199219 C 378.320312 259.554688 379.347656 239.941406 379.242188 210.152344 Z M 379.242188 210.152344 " fill-opacity="1" fill-rule="nonzero"/><path fill="#8e4a33" d="M 379.242188 210.152344 C 379.132812 180.917969 371.054688 155.390625 357.550781 136.078125 C 354.355469 143.410156 351.097656 150.695312 347.648438 157.917969 C 347.90625 178.066406 347.949219 200.441406 361.042969 216.773438 C 367.558594 224.875 375.296875 230.726562 377.71875 241.464844 C 378.167969 243.457031 378.191406 245.75 378.0625 248.128906 C 378.210938 247.914062 378.363281 247.679688 378.511719 247.464844 C 379.089844 236.492188 379.304688 224.511719 379.242188 210.152344 Z M 379.242188 210.152344 " fill-opacity="1" fill-rule="nonzero"/><path fill="#8e4a33" d="M 204.882812 230.917969 C 207.371094 223.761719 210.992188 217.050781 216.523438 211.714844 C 222.332031 206.121094 230.003906 202.285156 234.398438 195.511719 C 237.632812 190.519531 238.707031 184.453125 239.304688 178.539062 C 240.421875 167.628906 240.183594 156.589844 238.597656 145.722656 C 237.503906 138.285156 237.546875 127.054688 230.734375 122.449219 C 226.808594 119.789062 221.558594 119.640625 217.078125 121.203125 C 212.601562 122.769531 208.808594 125.835938 205.507812 129.21875 C 195.046875 140 188.808594 154.789062 188.425781 169.8125 C 188.039062 185.03125 195.496094 205.433594 195.175781 220.074219 C 195.003906 228.539062 195.21875 236.984375 195.710938 245.429688 C 195.925781 249.265625 195.710938 252.5 195.304688 256.144531 C 194.984375 259.101562 195.453125 262.941406 196.398438 265.703125 C 202.335938 260.945312 200.8125 246.351562 202.503906 239.171875 C 203.148438 236.425781 203.941406 233.640625 204.882812 230.917969 Z M 204.882812 230.917969 " fill-opacity="1" fill-rule="nonzero"/><path fill="#9f533a" d="M 325.703125 282.9375 C 315.136719 278.5625 307.742188 270.183594 297.96875 264.695312 C 286.652344 258.351562 275.589844 263.109375 265.519531 269.457031 C 255.292969 275.90625 245.09375 282.527344 232.53125 282.570312 C 220.636719 282.613281 209.429688 277.40625 200.8125 269.433594 C 199.375 268.105469 198.027344 266.691406 196.71875 265.253906 C 197.277344 271.128906 197.941406 276.914062 198.777344 282.828125 C 208.183594 350.042969 270.0625 368.882812 286.757812 368.882812 C 307.226562 368.882812 365.523438 350.042969 374.933594 282.828125 C 375.316406 280.105469 378.574219 264.375 378.875 261.71875 C 365.03125 273.675781 343.640625 290.351562 325.703125 282.9375 Z M 297.453125 328.695312 C 297.453125 326.335938 295.546875 324.429688 293.1875 324.429688 L 280.328125 324.429688 C 277.96875 324.429688 276.0625 326.335938 276.0625 328.695312 L 276.0625 329.058594 C 276.0625 331.761719 273.449219 333.667969 270.875 332.875 C 261.9375 330.152344 252.574219 324.707031 243.164062 315.277344 C 243.164062 315.277344 277.304688 316.199219 286.738281 286.34375 C 286.738281 286.34375 297.324219 315 331.53125 315.277344 C 331.53125 315.277344 319.957031 327.089844 302.660156 332.488281 C 300.089844 333.304688 297.453125 331.417969 297.453125 328.695312 Z M 297.453125 328.695312 " fill-opacity="1" fill-rule="nonzero"/><path fill="#ffffff" d="M 254.050781 217.246094 L 234.011719 217.246094 C 246.894531 230.125 259.796875 243.027344 272.675781 255.910156 C 274.21875 253.894531 275.3125 251.496094 275.804688 248.859375 L 277.347656 240.457031 C 269.589844 232.71875 261.832031 224.980469 254.050781 217.246094 Z M 254.050781 217.246094 " fill-opacity="0.4196" fill-rule="nonzero"/><path fill="#ffffff" d="M 223.789062 218.210938 C 217.9375 220.179688 213.4375 224.960938 211.785156 230.8125 L 243.441406 262.46875 L 259.496094 262.46875 C 261.980469 262.46875 264.359375 261.910156 266.503906 260.925781 Z M 223.789062 218.210938 " fill-opacity="0.4196" fill-rule="nonzero"/><path fill="#000000" d="M 259.496094 264.460938 L 229.46875 264.460938 C 220.507812 264.460938 212.816406 258.054688 211.207031 249.242188 L 209.449219 239.640625 C 208.335938 233.597656 209.964844 227.425781 213.90625 222.710938 C 217.828125 217.996094 223.617188 215.292969 229.769531 215.292969 L 259.238281 215.292969 C 265.390625 215.292969 271.15625 217.996094 275.097656 222.710938 C 279.019531 227.425781 280.648438 233.597656 279.554688 239.640625 L 277.800781 249.242188 C 276.128906 258.054688 268.453125 264.460938 259.496094 264.460938 Z M 229.746094 219.238281 C 224.773438 219.238281 220.101562 221.425781 216.929688 225.238281 C 213.757812 229.054688 212.449219 234.046875 213.328125 238.914062 L 215.085938 248.515625 C 216.351562 255.460938 222.394531 260.496094 229.445312 260.496094 L 259.472656 260.496094 C 266.523438 260.496094 272.570312 255.460938 273.832031 248.515625 L 275.589844 238.914062 C 276.492188 234.027344 275.183594 229.054688 271.992188 225.238281 C 268.796875 221.425781 264.144531 219.238281 259.175781 219.238281 Z M 229.746094 219.238281 " fill-opacity="1" fill-rule="nonzero"/><path fill="#ffffff" d="M 339.332031 217.246094 L 319.292969 217.246094 C 332.175781 230.125 345.078125 243.027344 357.957031 255.910156 C 359.5 253.894531 360.59375 251.496094 361.085938 248.859375 L 362.628906 240.457031 C 354.894531 232.71875 347.132812 224.980469 339.332031 217.246094 Z M 339.332031 217.246094 " fill-opacity="0.4196" fill-rule="nonzero"/><path fill="#ffffff" d="M 309.089844 218.210938 C 303.238281 220.179688 298.738281 224.960938 297.089844 230.8125 L 328.746094 262.46875 L 344.796875 262.46875 C 347.285156 262.46875 349.664062 261.910156 351.804688 260.925781 Z M 309.089844 218.210938 " fill-opacity="0.4196" fill-rule="nonzero"/><path fill="#000000" d="M 344.777344 264.460938 L 314.75 264.460938 C 305.789062 264.460938 298.097656 258.054688 296.488281 249.242188 L 294.730469 239.640625 C 293.617188 233.597656 295.246094 227.425781 299.1875 222.710938 C 303.109375 217.996094 308.898438 215.292969 315.050781 215.292969 L 344.519531 215.292969 C 350.671875 215.292969 356.4375 217.996094 360.378906 222.710938 C 364.300781 227.425781 365.929688 233.597656 364.835938 239.640625 L 363.078125 249.242188 C 361.429688 258.054688 353.757812 264.460938 344.777344 264.460938 Z M 315.027344 219.238281 C 310.054688 219.238281 305.382812 221.425781 302.210938 225.238281 C 299.039062 229.054688 297.730469 234.046875 298.609375 238.914062 L 300.367188 248.515625 C 301.632812 255.460938 307.675781 260.496094 314.726562 260.496094 L 344.753906 260.496094 C 351.804688 260.496094 357.851562 255.460938 359.113281 248.515625 L 360.871094 238.914062 C 361.773438 234.027344 360.464844 229.03125 357.273438 225.238281 C 354.101562 221.425781 349.425781 219.238281 344.453125 219.238281 Z M 315.027344 219.238281 " fill-opacity="1" fill-rule="nonzero"/><path fill="#000000" d="M 277.347656 227.105469 L 297.925781 227.105469 L 297.925781 240.328125 L 277.347656 240.328125 Z M 277.347656 227.105469 " fill-opacity="1" fill-rule="nonzero"/><path fill="#9f533a" d="M 237.183594 98.679688 C 223.917969 108.945312 222.652344 126.753906 228.417969 141.480469 C 239.796875 170.523438 274.839844 191.011719 302.769531 201.277344 C 304.804688 202.027344 328.359375 208.4375 328.378906 207.707031 C 328.746094 198.382812 328.273438 190.433594 338.066406 198.941406 C 343.660156 203.785156 349.964844 207.816406 356.691406 210.859375 C 360.058594 212.378906 363.550781 213.6875 367.109375 214.671875 C 372.039062 216.042969 372.210938 216.195312 374.953125 212.101562 C 383.546875 199.328125 386.761719 181.195312 387 166.105469 C 387.34375 144.09375 374.054688 114.5625 349.042969 111.582031 C 343.640625 110.9375 338.519531 111.988281 332.925781 110.660156 C 332.003906 110.445312 330.824219 109.609375 331.359375 108.816406 C 341.691406 107.703125 351.679688 103.609375 359.820312 97.15625 C 340.660156 98.699219 321.113281 97.90625 301.996094 96.644531 C 282.085938 95.3125 255.101562 84.8125 237.183594 98.679688 Z M 237.183594 98.679688 " fill-opacity="1" fill-rule="nonzero"/><path fill="#000000" d="M 211.785156 232.804688 C 211.421875 232.804688 211.035156 232.699219 210.714844 232.484375 L 194.125 221.746094 C 193.203125 221.144531 192.945312 219.925781 193.546875 219.003906 C 194.148438 218.082031 195.367188 217.824219 196.289062 218.421875 L 212.878906 229.160156 C 213.800781 229.761719 214.058594 230.984375 213.457031 231.90625 C 213.070312 232.484375 212.429688 232.804688 211.785156 232.804688 Z M 211.785156 232.804688 " fill-opacity="1" fill-rule="nonzero"/><path fill="#000000" d="M 363.445312 232.804688 C 362.824219 232.804688 362.203125 232.503906 361.816406 231.96875 C 361.195312 231.070312 361.40625 229.847656 362.308594 229.203125 L 377.613281 218.464844 C 378.511719 217.84375 379.734375 218.058594 380.375 218.960938 C 380.996094 219.859375 380.785156 221.082031 379.882812 221.722656 L 364.582031 232.460938 C 364.238281 232.675781 363.851562 232.804688 363.445312 232.804688 Z M 363.445312 232.804688 " fill-opacity="1" fill-rule="nonzero"/></svg>